<svg xmlns="http://www.w3.org/2000/svg" xmlns:xlink="http://www.w3.org/1999/xlink" width="16" height="16" viewBox="0 0 16 16">
  <defs>
    <path id="app_icon-16-color-a" d="M8,1 C11.8663333,1 15,4.13366667 15,8 C15,11.8663333 11.8663333,15 8,15 C4.13366667,15 1,11.8663333 1,8 C1,4.13366667 4.13366667,1 8,1 L8,1 Z"/>
  </defs>
  <g fill="none" fill-rule="evenodd">
    <use fill="#FFF" xlink:href="#app_icon-16-color-a"/>
    <path stroke="#000" stroke-opacity=".5" d="M8,0.5 C12.1424757,0.5 15.5,3.85752429 15.5,8 C15.5,12.1424757 12.1424757,15.5 8,15.5 C3.85752429,15.5 0.5,12.1424757 0.5,8 C0.5,3.85752429 3.85752429,0.5 8,0.5 Z"/>
    <polygon fill="#333" points="7 5 9 5 9 11 7 11"/>
    <path fill="#0080FF" d="M8,2 C11.314,2 14,4.686 14,8 C14,11.314 11.314,14 8,14 C4.686,14 2,11.314 2,8 C2,4.686 4.686,2 8,2 Z M8,4 C5.79066667,4 4,5.79066667 4,8 C4,10.2093333 5.79066667,12 8,12 C10.2093333,12 12,10.2093333 12,8 C12,5.79066667 10.2093333,4 8,4 Z" opacity=".8"/>
  </g>
</svg>
