<?xml version="1.0" encoding="UTF-8" standalone="no"?>
<!-- Created with Inkscape (http://www.inkscape.org/) -->
<svg
   xmlns:svg="http://www.w3.org/2000/svg"
   xmlns="http://www.w3.org/2000/svg"
   xmlns:xlink="http://www.w3.org/1999/xlink"
   version="1.0"
   width="210mm"
   height="297mm"
   viewBox="0 0 663.99999 872.10213"
   id="svg2"
   xml:space="preserve">
 <defs
   id="defs4"><linearGradient
     id="linearGradient10104"><stop
       style="stop-color:#b0b2af;stop-opacity:1"
       offset="0"
       id="stop10106" /><stop
       style="stop-color:#d4d6d3;stop-opacity:1"
       offset="1"
       id="stop10108" /></linearGradient><linearGradient
     id="linearGradient8154"><stop
       style="stop-color:#625e5c;stop-opacity:1"
       offset="0"
       id="stop8156" /><stop
       style="stop-color:#a6a8a5;stop-opacity:1"
       offset="1"
       id="stop8158" /></linearGradient><linearGradient
     id="linearGradient4241"><stop
       style="stop-color:#e1a56e;stop-opacity:1"
       offset="0"
       id="stop4243" /><stop
       style="stop-color:#a66a33;stop-opacity:1"
       offset="1"
       id="stop4245" /></linearGradient><linearGradient
     id="linearGradient3264"><stop
       style="stop-color:#ec7b74;stop-opacity:1"
       offset="0"
       id="stop3266" /><stop
       style="stop-color:#d63a45;stop-opacity:1"
       offset="1"
       id="stop3268" /></linearGradient><linearGradient
     x1="4.7428908"
     y1="6.0564399"
     x2="4.7428908"
     y2="5.0079598"
     id="linearGradient15108"
     xlink:href="#linearGradient8154"
     gradientUnits="userSpaceOnUse"
     gradientTransform="matrix(116.25157,0,0,116.25157,-0.4348338,-0.4283132)" /><linearGradient
     x1="5.3147106"
     y1="7.4951501"
     x2="5.3147106"
     y2="6.3150902"
     id="linearGradient15111"
     xlink:href="#linearGradient8154"
     gradientUnits="userSpaceOnUse"
     gradientTransform="matrix(116.25157,0,0,116.25157,-0.4348338,-0.4283132)" /><linearGradient
     x1="0.91182125"
     y1="6.1099501"
     x2="0.91182125"
     y2="5.0079598"
     id="linearGradient15114"
     xlink:href="#linearGradient8154"
     gradientUnits="userSpaceOnUse"
     gradientTransform="matrix(116.25157,0,0,116.25157,-0.4348338,-0.4283132)" /><linearGradient
     x1="0.56385255"
     y1="7.43191"
     x2="0.56385255"
     y2="6.24089"
     id="linearGradient15117"
     xlink:href="#linearGradient8154"
     gradientUnits="userSpaceOnUse"
     gradientTransform="matrix(116.25157,0,0,116.25157,-0.4348338,-0.4283132)" /><radialGradient
     cx="1.5118316"
     cy="1.5863022"
     r="0.77457374"
     fx="1.5118316"
     fy="1.5863022"
     id="radialGradient15120"
     xlink:href="#linearGradient4241"
     gradientUnits="userSpaceOnUse"
     gradientTransform="matrix(116.25156,128.93341,-23.78506,21.445567,44.308907,-10.684272)" /><radialGradient
     cx="3.3883746"
     cy="1.2456843"
     r="0.46976188"
     fx="3.3883746"
     fy="1.2456843"
     id="radialGradient15123"
     xlink:href="#linearGradient4241"
     gradientUnits="userSpaceOnUse"
     gradientTransform="matrix(56.431186,16.902757,-89.184694,297.75011,296.00926,-276.05045)" /><linearGradient
     x1="0.86579001"
     y1="5.5388651"
     x2="2.0256701"
     y2="5.5388651"
     id="linearGradient15126"
     xlink:href="#linearGradient4241"
     gradientUnits="userSpaceOnUse"
     gradientTransform="matrix(116.25157,0,0,116.25157,-0.4348338,-0.4283132)" /><linearGradient
     x1="0.45398"
     y1="6.77776"
     x2="2.1632199"
     y2="6.77776"
     id="linearGradient15129"
     xlink:href="#linearGradient4241"
     gradientUnits="userSpaceOnUse"
     gradientTransform="matrix(116.25157,0,0,116.25157,-0.4348338,-0.4283132)" /><linearGradient
     x1="5.3441901"
     y1="6.85675"
     x2="3.4426501"
     y2="6.85675"
     id="linearGradient15132"
     xlink:href="#linearGradient4241"
     gradientUnits="userSpaceOnUse"
     gradientTransform="matrix(116.25157,0,0,116.25157,-0.4348338,-0.4283132)" /><linearGradient
     x1="4.8165002"
     y1="5.4751501"
     x2="3.6824317"
     y2="5.4751501"
     id="linearGradient15135"
     xlink:href="#linearGradient4241"
     gradientUnits="userSpaceOnUse"
     gradientTransform="matrix(116.25157,0,0,116.25157,-0.4348338,-0.4283132)" /><radialGradient
     cx="3.7747288"
     cy="5.7653866"
     r="0.34648392"
     fx="3.7747288"
     fy="5.7653866"
     id="radialGradient15138"
     xlink:href="#linearGradient3264"
     gradientUnits="userSpaceOnUse"
     gradientTransform="matrix(79.193871,-30.312074,49.803498,130.11752,-153.79953,27.547534)" /><radialGradient
     cx="3.1514964"
     cy="6.1444077"
     r="1.1824991"
     fx="3.1514964"
     fy="6.1444077"
     id="radialGradient15141"
     xlink:href="#linearGradient4241"
     gradientUnits="userSpaceOnUse"
     gradientTransform="matrix(116.25157,0,0,82.513993,-0.4348338,214.29596)" /><linearGradient
     x1="2.7751212"
     y1="5.5686064"
     x2="2.7751212"
     y2="4.6131067"
     id="linearGradient15147"
     xlink:href="#linearGradient8154"
     gradientUnits="userSpaceOnUse"
     gradientTransform="matrix(116.25157,0,0,116.25157,-0.4348338,-0.4283132)" /><linearGradient
     x1="2.7847881"
     y1="5.56534"
     x2="2.7847881"
     y2="2.9390848"
     id="linearGradient15154"
     xlink:href="#linearGradient10104"
     gradientUnits="userSpaceOnUse"
     gradientTransform="matrix(116.25157,0,0,116.25157,-0.4348338,-0.4283132)" /><radialGradient
     cx="2.7847881"
     cy="3.8941741"
     r="1.2807455"
     fx="2.7847881"
     fy="3.8941741"
     id="radialGradient15157"
     xlink:href="#linearGradient4241"
     gradientUnits="userSpaceOnUse"
     gradientTransform="matrix(65.029071,-16.25233,40.210302,160.8901,-14.376943,-128.99928)" /><radialGradient
     cx="2.7847881"
     cy="3.8941741"
     r="1.2807455"
     fx="2.7847881"
     fy="3.8941741"
     id="radialGradient2314"
     xlink:href="#linearGradient4241"
     gradientUnits="userSpaceOnUse"
     gradientTransform="matrix(65.029071,-16.25233,40.210302,160.8901,-14.376943,-128.99928)" /><linearGradient
     x1="2.7847881"
     y1="5.56534"
     x2="2.7847881"
     y2="2.9390848"
     id="linearGradient2316"
     xlink:href="#linearGradient10104"
     gradientUnits="userSpaceOnUse"
     gradientTransform="matrix(116.25157,0,0,116.25157,-0.4348338,-0.4283132)" /><linearGradient
     x1="2.7751212"
     y1="5.5686064"
     x2="2.7751212"
     y2="4.6131067"
     id="linearGradient2318"
     xlink:href="#linearGradient8154"
     gradientUnits="userSpaceOnUse"
     gradientTransform="matrix(116.25157,0,0,116.25157,-0.4348338,-0.4283132)" /><radialGradient
     cx="3.1514964"
     cy="6.1444077"
     r="1.1824991"
     fx="3.1514964"
     fy="6.1444077"
     id="radialGradient2320"
     xlink:href="#linearGradient4241"
     gradientUnits="userSpaceOnUse"
     gradientTransform="matrix(116.25157,0,0,82.513993,-0.4348338,214.29596)" /><radialGradient
     cx="3.7747288"
     cy="5.7653866"
     r="0.34648392"
     fx="3.7747288"
     fy="5.7653866"
     id="radialGradient2322"
     xlink:href="#linearGradient3264"
     gradientUnits="userSpaceOnUse"
     gradientTransform="matrix(79.193871,-30.312074,49.803498,130.11752,-153.79953,27.547534)" /><linearGradient
     x1="4.8165002"
     y1="5.4751501"
     x2="3.6824317"
     y2="5.4751501"
     id="linearGradient2324"
     xlink:href="#linearGradient4241"
     gradientUnits="userSpaceOnUse"
     gradientTransform="matrix(116.25157,0,0,116.25157,-0.4348338,-0.4283132)" /><linearGradient
     x1="5.3441901"
     y1="6.85675"
     x2="3.4426501"
     y2="6.85675"
     id="linearGradient2326"
     xlink:href="#linearGradient4241"
     gradientUnits="userSpaceOnUse"
     gradientTransform="matrix(116.25157,0,0,116.25157,-0.4348338,-0.4283132)" /><linearGradient
     x1="0.45398"
     y1="6.77776"
     x2="2.1632199"
     y2="6.77776"
     id="linearGradient2328"
     xlink:href="#linearGradient4241"
     gradientUnits="userSpaceOnUse"
     gradientTransform="matrix(116.25157,0,0,116.25157,-0.4348338,-0.4283132)" /><linearGradient
     x1="0.86579001"
     y1="5.5388651"
     x2="2.0256701"
     y2="5.5388651"
     id="linearGradient2330"
     xlink:href="#linearGradient4241"
     gradientUnits="userSpaceOnUse"
     gradientTransform="matrix(116.25157,0,0,116.25157,-0.4348338,-0.4283132)" /><radialGradient
     cx="3.3883746"
     cy="1.2456843"
     r="0.46976188"
     fx="3.3883746"
     fy="1.2456843"
     id="radialGradient2332"
     xlink:href="#linearGradient4241"
     gradientUnits="userSpaceOnUse"
     gradientTransform="matrix(56.431186,16.902757,-89.184694,297.75011,296.00926,-276.05045)" /><radialGradient
     cx="1.5118316"
     cy="1.5863022"
     r="0.77457374"
     fx="1.5118316"
     fy="1.5863022"
     id="radialGradient2334"
     xlink:href="#linearGradient4241"
     gradientUnits="userSpaceOnUse"
     gradientTransform="matrix(116.25156,128.93341,-23.78506,21.445567,44.308907,-10.684272)" /><linearGradient
     x1="0.56385255"
     y1="7.43191"
     x2="0.56385255"
     y2="6.24089"
     id="linearGradient2336"
     xlink:href="#linearGradient8154"
     gradientUnits="userSpaceOnUse"
     gradientTransform="matrix(116.25157,0,0,116.25157,-0.4348338,-0.4283132)" /><linearGradient
     x1="0.91182125"
     y1="6.1099501"
     x2="0.91182125"
     y2="5.0079598"
     id="linearGradient2338"
     xlink:href="#linearGradient8154"
     gradientUnits="userSpaceOnUse"
     gradientTransform="matrix(116.25157,0,0,116.25157,-0.4348338,-0.4283132)" /><linearGradient
     x1="5.3147106"
     y1="7.4951501"
     x2="5.3147106"
     y2="6.3150902"
     id="linearGradient2340"
     xlink:href="#linearGradient8154"
     gradientUnits="userSpaceOnUse"
     gradientTransform="matrix(116.25157,0,0,116.25157,-0.4348338,-0.4283132)" /><linearGradient
     x1="4.7428908"
     y1="6.0564399"
     x2="4.7428908"
     y2="5.0079598"
     id="linearGradient2342"
     xlink:href="#linearGradient8154"
     gradientUnits="userSpaceOnUse"
     gradientTransform="matrix(116.25157,0,0,116.25157,-0.4348338,-0.4283132)" /></defs>
 <g
   transform="matrix(0.9918961,0,0,0.9918961,-3.7446672e-3,-3.6879778e-3)"
   id="g2265"><path
     d="M 104.13113,717.02521 L 196.69062,693.11226 L 190.51766,717.12983 L 104.13113,717.02521 z M 54.898587,679.30157 C 56.433108,689.49684 68.88365,716.6067 78.183776,716.99033 L 17.756211,716.90895 C 7.5376987,725.65107 1.4228663,741.71704 0.70210656,749.6919 C -0.84403928,766.653 -0.65803677,775.04636 10.176609,782.59109 C -2.5064367,794.64638 -1.1579185,844.29742 26.95171,872.40705 L 248.59695,830.67274 C 295.59746,852.58616 366.85967,856.48059 410.24475,839.3451 L 641.75975,879.23102 C 652.73389,868.57075 681.91304,833.7069 662.32465,790.90308 C 672.43853,776.42976 673.47317,742.51917 654.00104,721.9194 L 488.70293,720.97776 L 480.43745,691.08948 L 566.76586,712.07289 C 577.78651,703.3889 616.35878,660.34094 585.48236,625.72123 C 604.98938,606.02821 607.69804,600.97127 588.00502,570.3041 L 480.72808,568.3162 C 487.67992,545.75177 485.28514,520.31593 468.77742,494.15933 C 433.42531,438.82358 398.25921,381.40693 396.27131,307.42444 L 415.17382,307.45931 L 398.22434,287.53379 L 432.70455,287.59192 L 403.03715,272.40946 L 430.51902,252.71645 L 389.06372,252.49557 C 415.87133,181.02411 419.603,110.49428 428.10099,33.931 C 434.86683,-27.042947 390.29598,4.4612277 364.68576,48.009065 C 339.06392,91.556902 293.1678,145.021 289.18037,225.79259 L 246.84155,185.84855 L 254.04915,235.04621 C 216.93002,187.8597 171.77791,153.08886 99.60894,112.56356 C 40.495018,79.373737 85.554125,183.43051 104.06137,211.64477 C 117.20943,231.69817 146.84195,269.24742 173.59144,298.71719 L 160.96652,322.10701 L 170.34802,320.96774 L 166.23271,333.33691 L 185.84435,336.91746 C 185.84435,377.64038 198.3879,410.94646 194.79572,452.32039 C 190.42466,502.63407 158.99024,537.88154 165.3492,580.62724 L 66.930624,580.06924 C 47.295735,601.19215 47.435236,636.28849 65.14035,640.19455 C 53.003686,648.97154 52.143425,660.9687 54.898587,679.30157 L 54.898587,679.30157 z "
     style="fill:#858683;fill-opacity:1;stroke:none;stroke-width:0.00762"
     id="_42184048" /><path
     d="M 387.61987,314.84129 C 379.34392,231.54704 196.35349,236.00645 196.35349,353.46238 C 196.35349,391.05116 207.94494,420.10127 204.62944,458.29107 C 199.11214,521.8458 142.46624,554.43111 200.03169,622.8905 C 229.10388,657.46488 318.75826,645.21778 356.35517,643.1206 C 428.45091,639.09829 504.93746,571.15274 457.50566,496.91216 C 424.87036,445.83355 389.45897,383.12164 387.61987,314.84129 L 387.61987,314.84129 z "
     style="fill:none;stroke:#1f1a17;stroke-width:4.10019302"
     id="path13" /><path
     d="M 337.96418,428.86547 C 347.63514,436.59736 394.17646,446.05792 394.28922,427.94244 C 394.39966,410.10363 393.78469,394.95373 391.53057,384.92471 C 389.27646,374.89568 384.68684,355.89204 375.43671,347.70909 C 369.62413,342.56728 354.39401,339.61449 345.78558,342.19528 C 337.17715,344.77606 323.26649,384.58176 323.25138,397.60078 C 323.23045,414.61071 328.29321,421.13358 337.96418,428.86547 z "
     style="fill:none;stroke:#1f1a17;stroke-width:4.10019302"
     id="path15" /><path
     d="M 248.41676,462.85627 C 271.85307,451.42874 291.03458,438.75964 286.52983,404.07948 C 284.7756,390.56639 267.56339,367.70669 256.68224,360.45608 C 229.20037,342.14297 210.76288,373.95172 213.05884,400.40593 C 214.76425,420.06639 224.98044,474.2838 248.41676,462.85627 L 248.41676,462.85627 z "
     style="fill:none;stroke:#1f1a17;stroke-width:4.10019302"
     id="path17" /><path
     d="M 260.71734,645.92691 C 269.22463,648.43911 274.07464,655.15263 286.46938,658.75295 C 317.94682,667.89381 347.58632,664.20863 371.59924,656.03266"
     style="fill:none;stroke:#1f1a17;stroke-width:4.10019302"
     id="path23" /><path
     d="M 370.19841,641.58143 C 370.04147,659.32955 376.67944,673.65291 384.86122,689.09809 C 398.72538,715.2733 446.26297,716.3928 450.14926,682.66124 C 452.85676,659.16215 446.67218,637.84626 427.67319,618.22184 M 449.0472,656.22796 C 460.49565,676.11163 511.80096,758.0469 433.59737,815.99598 C 382.57107,853.80796 227.81349,840.29488 209.22719,778.29443 C 188.55185,709.3247 211.77891,692.53216 235.05248,641.88717"
     style="fill:none;stroke:#1f1a17;stroke-width:4.10019302"
     id="path25" /><path
     d="M 259.66177,265.72151 C 225.34896,212.52247 168.24968,163.82353 98.420849,123.11106 C 50.853032,95.378091 106.52358,197.9329 121.41425,221.50058 C 136.30491,245.06826 179.05759,293.08829 202.77058,318.12888"
     style="fill:none;stroke:#1f1a17;stroke-width:4.10019302"
     id="path27" /><path
     d="M 309.76503,258.1268 C 307.34119,173.70607 308.141,179.08852 328.15487,139.28979 C 348.16874,99.491071 366.41094,67.874132 385.98189,38.987943 C 401.24455,16.460714 423.51719,-10.732852 416.78274,45.675896 C 407.83718,120.60701 396.12716,216.3797 362.05034,273.83238"
     style="fill:none;stroke:#1f1a17;stroke-width:4.10019302"
     id="path29" /><polyline
     transform="matrix(116.25157,0,0,116.25157,-0.4348338,-0.4283132)"
     class="fil1 str1"
     points="3.17115,2.26223 3.38424,2.25963 3.28167,2.36483 3.45525,2.38061 3.26063,2.43058 3.34742,2.48318 3.25348,2.48791 "
     id="polyline31"
     style="fill:none;stroke:#1f1a17;stroke-width:0.03527" /><polyline
     transform="matrix(116.25157,0,0,116.25157,-0.4348338,-0.4283132)"
     class="fil1 str1"
     points="2.55778,2.22466 2.55254,2.01962 2.48403,2.11975 2.3375,1.9677 2.34802,2.13602 2.21915,2.1255 2.33474,2.25913 "
     id="polyline33"
     style="fill:none;stroke:#1f1a17;stroke-width:0.03527" /><polyline
     transform="matrix(116.25157,0,0,116.25157,-0.4348338,-0.4283132)"
     class="fil1 str1"
     points="1.60432,2.58522 1.51694,2.69884 1.64055,2.6778 1.55376,2.78826 1.73077,2.78852 "
     id="polyline35"
     style="fill:none;stroke:#1f1a17;stroke-width:0.03527" /><path
     d="M 269.96399,646.55118 C 269.91981,615.73289 274.42688,585.15175 261.99378,560.28322 C 249.52929,535.35191 235.73836,513.77794 218.1867,490.36139"
     style="fill:none;stroke:#1f1a17;stroke-width:4.10019302"
     id="path37" /><path
     d="M 411.57234,627.8556 C 398.41383,604.34721 390.03674,571.55846 390.03674,541.2912 C 390.03674,517.82233 398.53473,476.59604 409.22639,452.63311"
     style="fill:none;stroke:#1f1a17;stroke-width:4.10019302"
     id="path39" /><path
     d="M 270.66731,602.80107 C 271.76123,567.12695 209.91889,562.16417 209.91889,514.94743 C 209.91889,458.5631 317.49111,448.78169 364.91827,448.78169 C 400.14947,448.78169 429.85872,447.17974 429.85872,488.60367 C 429.85872,508.26878 400.31105,537.11079 391.52476,564.07302"
     style="fill:none;stroke:#1f1a17;stroke-width:4.10019302"
     id="path41" /><path
     d="M 462.21501,581.0504 L 582.40751,582.33847 C 599.50579,608.71362 586.79368,612.87194 569.85466,629.81096 C 605.08935,653.42281 584.67906,682.86933 562.1902,703.64233 L 461.10481,678.52385"
     style="fill:none;stroke:#1f1a17;stroke-width:4.10019302"
     id="path43" /><path
     d="M 476.09196,734.29089 L 648.89411,733.71079 C 668.36508,751.5589 650.87154,779.53135 632.99554,785.38113 C 637.65607,787.73871 656.68877,793.97909 659.91359,807.3922 C 663.13841,820.80531 666.87938,846.54573 641.83415,870.89462 L 399.77862,830.83898"
     style="fill:none;stroke:#1f1a17;stroke-width:4.10019302"
     id="path45" /><path
     d="M 179.73417,590.68533 L 73.794117,590.01223 C 55.8379,607.96845 68.806924,632.12552 84.990305,635.44799 C 73.903393,642.91018 66.991075,658.8041 69.513734,674.39692 C 70.926191,683.12276 83.609236,709.86295 92.138614,709.86295 L 215.98955,679.30157"
     style="fill:none;stroke:#1f1a17;stroke-width:4.10019302"
     id="path47" /><path
     d="M 201.44182,725.0919 L 24.287224,725.08493 C 18.39792,731.77637 13.347952,740.01628 12.646955,747.75282 C 11.155447,764.1873 25.991472,773.2061 36.493639,780.51019 C 11.942471,788.80241 6.8564645,836.30978 34.089557,863.54287 L 251.04288,818.65233"
     style="fill:none;stroke:#1f1a17;stroke-width:4.10019302"
     id="path49" /><path
     d="M 131.79202,590.37959 C 128.69043,607.7034 113.41265,610.43414 100.21461,612.99168 C 122.06409,621.19206 105.9307,629.75748 100.53779,633.85302 C 118.64746,633.85302 127.1129,639.6935 110.46684,651.41515 C 123.62768,651.68485 143.08819,654.21332 146.01773,696.56726"
     style="fill:none;stroke:#1f1a17;stroke-width:0.8858369"
     id="path51" /><path
     d="M 87.239773,725.08725 C 87.239773,744.24319 65.642557,747.05531 52.341053,751.2299 C 64.935747,756.78905 74.41955,764.34541 56.014602,773.2712 C 54.198753,774.15123 89.862408,776.91801 65.709983,795.00792 C 83.596449,795.98443 108.49288,821.9841 99.99257,849.90656"
     style="fill:none;stroke:#1f1a17;stroke-width:0.8858369"
     id="path53" /><path
     d="M 585.00573,733.9247 C 585.00573,750.79977 605.61365,753.46426 618.19555,758.391 C 593.82458,768.27355 617.65498,780.23235 620.83563,782.97588 C 606.43555,782.97588 586.35657,784.24302 608.42461,798.52685 C 578.22362,810.46938 573.84907,826.48652 572.58425,859.43454"
     style="fill:none;stroke:#1f1a17;stroke-width:0.8858369"
     id="path55" /><path
     d="M 511.64751,691.08251 C 509.24575,664.16446 521.50448,643.16361 545.20933,642.33939 C 527.34612,621.60476 546.96706,626.31178 557.07397,626.31178 C 553.42251,622.61382 531.46956,607.85685 559.49084,605.58529 C 546.27768,602.28258 528.37843,594.84597 528.00875,581.75488"
     style="fill:none;stroke:#1f1a17;stroke-width:0.8858369"
     id="path57" /><path
     d="M 323.25138,397.60078 C 323.26649,384.58176 337.17715,344.77606 345.78558,342.19528 C 354.39401,339.61449 369.62413,342.56728 375.43671,347.70909 C 384.68684,355.89204 389.27646,374.89568 391.53057,384.92471 C 393.78469,394.95373 394.39966,410.10363 394.28922,427.94244 C 394.17646,446.05792 347.63514,436.59736 337.96418,428.86547 C 328.29321,421.13358 323.23045,414.61071 323.25138,397.60078 z M 364.91827,448.78169 C 381.86193,448.78169 397.52683,448.41085 409.22639,452.63427 C 421.85363,457.19133 429.85872,467.10061 429.85872,488.60367 C 429.85872,508.26878 400.31105,537.11079 391.52476,564.07302 C 394.48104,587.23614 401.67352,610.17142 411.57234,627.8556 C 417.17916,624.98884 422.57323,621.76635 427.67319,618.22184 C 442.17092,608.14748 454.29828,595.48187 462.21501,581.0504 C 475.56999,556.70616 476.94409,527.33752 457.50566,496.91216 C 424.87036,445.83355 389.45897,383.12164 387.61987,314.84129 C 386.63173,304.89364 383.15116,296.19686 377.78731,288.79512 C 373.59528,283.00928 368.25236,278.01511 362.05034,273.83238 C 347.93042,264.31022 329.35807,258.99403 309.76503,258.1268 C 305.5172,257.93847 301.22054,257.95939 296.9111,258.1919 C 288.22478,258.66155 279.48731,259.99031 270.98235,262.19909 C 267.15302,263.1942 263.3702,264.36718 259.66177,265.72151 C 234.69907,274.83215 213.07396,292.1141 202.77058,318.12888 C 202.0475,319.95635 201.37905,321.82801 200.76989,323.74151 C 197.92056,332.69404 196.35349,342.59518 196.35349,353.46238 C 196.35349,391.05116 207.94494,420.10127 204.62944,458.29107 C 200.05262,511.01464 160.28761,542.42582 179.73417,590.68533 C 183.72857,600.59926 190.22122,611.22349 200.03169,622.8905 C 207.96121,632.31966 220.39548,638.26709 235.05248,641.88717 C 243.06802,643.86693 251.74737,645.15035 260.71734,645.92691 C 263.77126,646.1908 266.85774,646.39657 269.96399,646.55118 C 269.94306,631.70934 270.97654,616.92214 270.66731,602.80107 C 270.63941,601.57345 270.60221,600.35048 270.55338,599.13333 C 267.47039,566.72356 209.91889,560.49712 209.91889,514.94743 C 209.91889,505.50199 212.93794,497.36438 218.1867,490.36139 C 244.27239,455.56032 325.43575,448.78169 364.91827,448.78169 L 364.91827,448.78169 z M 256.68224,360.45608 C 267.56339,367.70669 284.7756,390.56639 286.52983,404.07948 C 291.03458,438.75964 271.85307,451.42874 248.41676,462.85627 C 224.98044,474.2838 214.76425,420.06639 213.05884,400.40593 C 210.76288,373.95172 229.20037,342.14297 256.68224,360.45608 L 256.68224,360.45608 z "
     style="fill:url(#radialGradient2314);fill-opacity:1;stroke:#1f1a17;stroke-width:0.8858369"
     id="path59" /><path
     d="M 323.25138,397.60078 C 323.26649,384.58176 337.17715,344.77606 345.78558,342.19528 C 354.39401,339.61449 369.62413,342.56728 375.43671,347.70909 C 384.68684,355.89204 389.27646,374.89568 391.53057,384.92471 C 393.78469,394.95373 394.39966,410.10363 394.28922,427.94244 C 394.17646,446.05792 347.63514,436.59736 337.96418,428.86547 C 328.29321,421.13358 323.23045,414.61071 323.25138,397.60078 z M 364.91827,448.78169 C 381.86193,448.78169 397.52683,448.41085 409.22639,452.63427 C 421.85363,457.19133 429.85872,467.10061 429.85872,488.60367 C 429.85872,508.26878 400.31105,537.11079 391.52476,564.07302 C 394.48104,587.23614 401.67352,610.17142 411.57234,627.8556 C 417.17916,624.98884 422.57323,621.76635 427.67319,618.22184 C 442.17092,608.14748 454.29828,595.48187 462.21501,581.0504 C 475.56999,556.70616 476.94409,527.33752 457.50566,496.91216 C 410.39322,401.87516 224.51977,469.8742 189.18978,510.05935 C 187.36624,522.82963 165.78613,550.54895 179.73417,590.68533 C 183.24272,600.78144 190.22122,611.22349 200.03169,622.8905 C 207.96121,632.31966 220.39548,638.26709 235.05248,641.88717 C 243.06802,643.86693 251.74737,645.15035 260.71734,645.92691 C 263.77126,646.1908 266.85774,646.39657 269.96399,646.55118 C 269.94306,631.70934 270.97654,616.92214 270.66731,602.80107 C 270.63941,601.57345 270.60221,600.35048 270.55338,599.13333 C 267.47039,566.72356 209.91889,560.49712 209.91889,514.94743 C 209.91889,505.50199 212.93794,497.36438 218.1867,490.36139 C 244.27239,455.56032 325.43575,448.78169 364.91827,448.78169 L 364.91827,448.78169 z M 256.68224,360.45608 C 267.56339,367.70669 284.7756,390.56639 286.52983,404.07948 C 291.03458,438.75964 271.85307,451.42874 248.41676,462.85627 C 224.98044,474.2838 214.76425,420.06639 213.05884,400.40593 C 210.76288,373.95172 229.20037,342.14297 256.68224,360.45608 L 256.68224,360.45608 z "
     style="fill:url(#linearGradient2316);fill-opacity:1;stroke:#1f1a17;stroke-width:0.8858369"
     id="path8164" /><circle
     cx="2.25913"
     cy="3.6178401"
     r="0.12639999"
     transform="matrix(116.25157,0,0,116.25157,-0.4348338,-0.4283132)"
     style="fill:#000000;stroke:#1f1a17;stroke-width:0.03527"
     id="circle19" /><path
     d="M 286.52983,404.07948 C 284.7756,390.56639 267.56339,367.70669 256.68224,360.45608 C 229.20037,342.14297 210.76288,373.95172 213.05884,400.40593 C 214.76425,420.06639 224.98044,474.2838 248.41676,462.85627 C 271.85307,451.42874 291.03458,438.75964 286.52983,404.07948 L 286.52983,404.07948 z M 262.19257,405.45706 C 270.30693,405.45706 276.88677,412.0369 276.88677,420.15126 C 276.88677,428.26561 270.30693,434.84545 262.19257,434.84545 C 254.07821,434.84545 247.49837,428.26561 247.49837,420.15126 C 247.49837,412.0369 254.07821,405.45706 262.19257,405.45706 z "
     style="fill:#ffffff;fill-opacity:1;stroke:#1f1a17;stroke-width:0.8858369"
     id="path61" /><circle
     cx="2.96223"
     cy="3.5032899"
     r="0.12639999"
     transform="matrix(116.25157,0,0,116.25157,-0.4348338,-0.4283132)"
     style="fill:#000000;stroke:#1f1a17;stroke-width:0.03527"
     id="circle21" /><path
     d="M 345.78558,342.19528 C 337.17715,344.77606 323.26649,384.58176 323.25138,397.60078 C 323.23045,414.61071 328.29321,421.13358 337.96418,428.86547 C 347.63514,436.59736 394.17646,446.05792 394.28922,427.94244 C 394.39966,410.10363 393.78469,394.95373 391.53057,384.92471 C 389.27646,374.89568 384.68684,355.89204 375.43671,347.70909 C 369.62413,342.56728 354.39401,339.61449 345.78558,342.19528 L 345.78558,342.19528 z M 343.92904,392.14044 C 352.0434,392.14044 358.62324,398.72028 358.62324,406.83464 C 358.62324,414.949 352.0434,421.52884 343.92904,421.52884 C 335.81469,421.52884 329.23485,414.949 329.23485,406.83464 C 329.23485,398.72028 335.81469,392.14044 343.92904,392.14044 z "
     style="fill:#ffffff;fill-opacity:1;stroke:#1f1a17;stroke-width:0.8858369"
     id="path63" /><path
     d="M 364.91827,448.78169 C 325.43575,448.78169 244.27239,455.56032 218.1867,490.36139 C 235.73836,513.77794 249.52929,535.35191 261.99378,560.28322 C 267.91796,572.1339 269.99654,585.28079 270.55338,599.13333 C 270.66615,600.32026 270.70567,601.5409 270.66731,602.80107 C 270.97654,616.92214 269.94306,631.70934 269.96399,646.55118 C 302.22496,648.15545 336.52847,644.22615 356.35517,643.1206 C 360.96222,642.86368 365.58787,642.3452 370.19841,641.58143 C 384.47062,639.21571 398.59286,634.49124 411.57234,627.8556 C 401.67352,610.17142 394.48104,587.23614 391.52476,564.07302 C 390.55057,556.44343 390.03674,548.79059 390.03674,541.2912 C 390.03674,517.82233 398.53473,476.59604 409.22639,452.63311 C 397.52683,448.41085 381.86193,448.78169 364.91827,448.78169 L 364.91827,448.78169 z "
     style="fill:url(#linearGradient2318);fill-opacity:1;stroke:#1f1a17;stroke-width:0.8858369"
     id="path65" /><path
     d="M 261.99378,560.28322 C 249.52929,535.35191 235.73836,513.77794 218.1867,490.36139 C 212.93794,497.36438 209.91889,505.50199 209.91889,514.94743 C 209.91889,560.49712 267.47039,566.72356 270.55338,599.13333 C 269.99654,585.28079 267.91796,572.1339 261.99378,560.28322 z "
     style="fill:#5b5857;fill-opacity:1;stroke:#1f1a17;stroke-width:0.8858369"
     id="path67" /><path
     d="M 409.22639,452.63311 C 398.53473,476.59604 390.03674,517.82233 390.03674,541.2912 C 390.03674,548.79059 390.55057,556.44343 391.52476,564.07302 C 400.31105,537.11079 429.85872,508.26878 429.85872,488.60367 C 429.85872,467.10061 421.85363,457.19133 409.22639,452.63311 z "
     style="fill:#5b5857;fill-opacity:1;stroke:#1f1a17;stroke-width:0.8858369"
     id="path69" /><path
     d="M 356.35517,643.1206 C 336.52847,644.22615 302.22496,648.15545 269.96399,646.55118 C 266.85774,646.39657 263.77126,646.1908 260.71734,645.92691 C 269.22463,648.43911 274.07464,655.15263 286.46938,658.75295 C 317.94682,667.89381 347.58632,664.20863 371.59924,656.03266 C 370.66109,651.42328 370.15424,646.64186 370.19841,641.58143 C 365.58787,642.3452 360.96222,642.86368 356.35517,643.1206 L 356.35517,643.1206 z "
     style="fill:#a66a33;fill-opacity:1;stroke:#1f1a17;stroke-width:0.8858369"
     id="path71" /><path
     d="M 371.59924,656.03266 C 347.58632,664.20863 317.94682,667.89381 286.46938,658.75295 C 274.07464,655.15263 269.22463,648.43911 260.71734,645.92691 C 251.74737,645.15035 243.06802,643.86693 235.05248,641.88717 C 228.34476,656.48488 221.64053,668.2693 215.98955,679.30157 C 208.33903,694.2399 202.62178,707.79948 201.44182,725.0919 C 200.47112,739.33853 202.57993,756.11945 209.22719,778.29443 C 214.38527,795.50199 230.0339,808.97555 251.04288,818.65233 C 292.86671,837.91754 355.93434,842.13979 399.77862,830.83898 C 413.26148,827.36422 424.92732,822.4212 433.59737,815.99598 C 467.42773,790.92749 477.02198,761.37169 476.09196,734.29089 C 475.3619,713.06219 468.16477,693.35406 461.10481,678.52385 C 456.35129,668.54017 451.66053,660.76759 449.0472,656.22796 C 450.91071,664.72828 451.20134,673.52968 450.14926,682.66124 C 446.26297,716.3928 398.72538,715.2733 384.86122,689.09809 C 379.01261,678.05652 373.95217,667.58807 371.59924,656.03266 L 371.59924,656.03266 z "
     style="fill:url(#radialGradient2320);fill-opacity:1;stroke:#1f1a17;stroke-width:0.8858369"
     id="path73" /><path
     d="M 371.59924,656.03266 C 373.95217,667.58807 379.01261,678.05652 384.86122,689.09809 C 398.72538,715.2733 446.26297,716.3928 450.14926,682.66124 C 451.20134,673.52968 450.91071,664.72828 449.0472,656.22796 C 446.11533,642.85206 439.29021,630.22016 427.67319,618.22184 C 422.57323,621.76635 417.17916,624.98884 411.57234,627.8556 C 398.59286,634.49124 384.47062,639.21571 370.19841,641.58143 C 370.15424,646.64186 370.66109,651.42328 371.59924,656.03266 L 371.59924,656.03266 z "
     style="fill:url(#radialGradient2322);fill-opacity:1;stroke:#1f1a17;stroke-width:0.8858369"
     id="path75" /><path
     d="M 427.67319,618.22184 C 439.29021,630.22016 446.11533,642.85206 449.0472,656.22796 C 451.66053,660.76759 456.35129,668.54017 461.10481,678.52385 L 511.64751,691.08251 C 509.24575,664.16446 521.50448,643.16361 545.20933,642.33939 C 527.34612,621.60476 546.96706,626.31178 557.07397,626.31178 C 553.42251,622.61382 531.46956,607.85685 559.49084,605.58529 C 546.27768,602.28258 528.37843,594.84597 528.00875,581.75488 L 462.21501,581.0504 C 454.29828,595.48187 442.17092,608.14748 427.67319,618.22184 L 427.67319,618.22184 z "
     style="fill:url(#linearGradient2324);fill-opacity:1;stroke:#1f1a17;stroke-width:0.8858369"
     id="path77" /><path
     d="M 585.00573,733.9247 L 476.09196,734.29089 C 477.02198,761.37169 467.42773,790.92749 433.59737,815.99598 C 424.92732,822.4212 413.26148,827.36422 399.77862,830.83898 L 572.58425,859.43454 C 573.84907,826.48652 578.22362,810.46938 608.42461,798.52685 C 586.35657,784.24302 606.43555,782.97588 620.83563,782.97588 C 617.65498,780.23235 593.82458,768.27355 618.19555,758.391 C 605.61365,753.46426 585.00573,750.79977 585.00573,733.9247 z "
     style="fill:url(#linearGradient2326);fill-opacity:1;stroke:#1f1a17;stroke-width:0.8858369"
     id="path79" /><path
     d="M 251.04288,818.65233 C 230.0339,808.97555 214.38527,795.50199 209.22719,778.29443 C 202.57993,756.11945 200.47112,739.33853 201.44182,725.0919 L 87.239773,725.08725 C 87.239773,744.24319 65.642557,747.05531 52.341053,751.2299 C 64.935747,756.78905 74.41955,764.34541 56.014602,773.2712 C 54.198753,774.15123 89.862408,776.91801 65.709983,795.00792 C 83.596449,795.98443 108.49288,821.9841 99.99257,849.90656 L 251.04288,818.65233 L 251.04288,818.65233 z "
     style="fill:url(#linearGradient2328);fill-opacity:1;stroke:#1f1a17;stroke-width:0.8858369"
     id="path81" /><path
     d="M 146.01773,696.56726 L 215.98955,679.30157 C 221.64053,668.2693 228.34476,656.48488 235.05248,641.88717 C 220.39548,638.26709 207.96121,632.31966 200.03169,622.8905 C 190.22122,611.22349 183.72857,600.59926 179.73417,590.68533 L 131.79202,590.37959 C 128.69043,607.7034 113.41265,610.43414 100.21461,612.99168 C 122.06409,621.19206 105.9307,629.75748 100.53779,633.85302 C 118.64746,633.85302 127.1129,639.6935 110.46684,651.41515 C 123.62768,651.68485 143.08819,654.21332 146.01773,696.56726 z "
     style="fill:url(#linearGradient2330);fill-opacity:1;stroke:#1f1a17;stroke-width:0.8858369"
     id="path83" /><path
     d="M 309.76503,258.1268 C 329.35807,258.99403 347.93042,264.31022 362.05034,273.83238 C 364.19169,270.22161 366.24586,266.45855 368.21632,262.55947 C 397.58844,204.42206 408.39984,115.89765 416.78274,45.675896 C 423.51719,-10.732852 401.24455,16.460714 385.98189,38.987943 C 366.41094,67.874132 348.16874,99.491071 328.15487,139.28979 C 308.141,179.08852 307.34119,173.70607 309.76503,258.1268 z "
     style="fill:url(#radialGradient2332);fill-opacity:1;stroke:#1f1a17;stroke-width:0.8858369"
     id="path85" /><path
     d="M 259.66177,265.72151 C 225.34896,212.52247 168.24968,163.82353 98.420849,123.11106 C 50.853032,95.378091 106.52358,197.9329 121.41425,221.50058 C 133.23238,240.20429 162.59869,274.31018 186.06988,300.10756 C 192.17309,306.81528 197.87755,312.9615 202.77058,318.12888 C 213.07396,292.1141 234.69907,274.83215 259.66177,265.72151 L 259.66177,265.72151 z "
     style="fill:url(#radialGradient2334);fill-opacity:1;stroke:#1f1a17;stroke-width:0.8858369"
     id="path87" /><path
     d="M 65.709983,795.00792 C 89.862408,776.91801 54.198753,774.15123 56.014602,773.2712 C 74.41955,764.34541 64.935747,756.78905 52.341053,751.2299 C 65.642557,747.05531 87.239773,744.24319 87.239773,725.08725 L 24.287224,725.08493 C 18.39792,731.77637 13.347952,740.01628 12.646955,747.75282 C 11.155447,764.1873 25.991472,773.2061 36.493639,780.51019 C 11.942471,788.80241 6.8564645,836.30978 34.089557,863.54287 L 99.99257,849.90656 C 108.49288,821.9841 83.596449,795.98443 65.709983,795.00792 L 65.709983,795.00792 z "
     style="fill:url(#linearGradient2336);fill-opacity:1;stroke:#1f1a17;stroke-width:0.8858369"
     id="path89" /><path
     d="M 92.138614,709.86295 L 146.01773,696.56726 C 143.08819,654.21332 123.62768,651.68485 110.46684,651.41515 C 127.1129,639.6935 118.64746,633.85302 100.53779,633.85302 C 105.9307,629.75748 122.06409,621.19206 100.21461,612.99168 C 113.41265,610.43414 128.69043,607.7034 131.79202,590.37959 L 73.794117,590.01223 C 55.8379,607.96845 68.806924,632.12552 84.990305,635.44799 C 73.903393,642.91018 66.991075,658.8041 69.513734,674.39692 C 70.926191,683.12276 83.609236,709.86295 92.138614,709.86295 z "
     style="fill:url(#linearGradient2338);fill-opacity:1;stroke:#1f1a17;stroke-width:0.8858369"
     id="path91" /><path
     d="M 608.42461,798.52685 C 578.22362,810.46938 573.84907,826.48652 572.58425,859.43454 L 641.83415,870.89462 C 666.87938,846.54573 663.13841,820.80531 659.91359,807.3922 C 656.68877,793.97909 637.65607,787.73871 632.99554,785.38113 C 650.87154,779.53135 668.36508,751.5589 648.89411,733.71079 L 585.00573,733.9247 C 585.00573,750.79977 605.61365,753.46426 618.19555,758.391 C 593.82458,768.27355 617.65498,780.23235 620.83563,782.97588 C 606.43555,782.97588 586.35657,784.24302 608.42461,798.52685 L 608.42461,798.52685 z "
     style="fill:url(#linearGradient2340);fill-opacity:1;stroke:#1f1a17;stroke-width:0.8858369"
     id="path93" /><path
     d="M 511.64751,691.08251 L 562.1902,703.64233 C 584.67906,682.86933 605.08935,653.42281 569.85466,629.81096 C 586.79368,612.87194 599.50579,608.71362 582.40751,582.33847 L 528.00875,581.75488 C 528.37843,594.84597 546.27768,602.28258 559.49084,605.58529 C 531.46956,607.85685 553.42251,622.61382 557.07397,626.31178 C 546.96706,626.31178 527.34612,621.60476 545.20933,642.33939 C 521.50448,643.16361 509.24575,664.16446 511.64751,691.08251 L 511.64751,691.08251 z "
     style="fill:url(#linearGradient2342);fill-opacity:1;stroke:#1f1a17;stroke-width:0.8858369"
     id="path95" /><path
     d="M 270.98235,262.19909 C 279.48731,259.99031 288.22478,258.66155 296.9111,258.1919 L 296.30194,234.35568 L 288.33755,245.99595 L 271.3032,228.31989 L 272.52617,247.88736 L 257.54483,246.66439 L 270.98235,262.19909 L 270.98235,262.19909 z "
     style="fill:#a66a33;fill-opacity:1;stroke:#1f1a17;stroke-width:0.8858369"
     id="path97" /><path
     d="M 202.77058,318.12888 C 197.87755,312.9615 192.17309,306.81528 186.06988,300.10756 L 175.91182,313.31607 L 190.28167,310.87013 L 180.1922,323.71128 L 200.76989,323.74151 C 201.37905,321.82801 202.0475,319.95635 202.77058,318.12888 z "
     style="fill:#a66a33;fill-opacity:1;stroke:#1f1a17;stroke-width:0.8858369"
     id="path99" /><path
     d="M 368.21632,262.55947 C 366.24586,266.45855 364.19169,270.22161 362.05034,273.83238 C 368.25236,278.01511 373.59528,283.00928 377.78731,288.79512 L 388.70799,288.24525 L 378.61851,282.13042 L 401.24339,276.32133 L 381.06445,274.48688 L 392.98837,262.25721 L 368.21632,262.55947 L 368.21632,262.55947 z "
     style="fill:#a66a33;fill-opacity:1;stroke:#1f1a17;stroke-width:0.8858369"
     id="path101" /></g>
</svg>