<?xml version="1.0" encoding="UTF-8"?>
<!DOCTYPE svg PUBLIC "-//W3C//DTD SVG 1.1//EN" "http://www.w3.org/Graphics/SVG/1.1/DTD/svg11.dtd">
<svg version="1.1" id="Calque_1" xmlns="http://www.w3.org/2000/svg" xmlns:xlink="http://www.w3.org/1999/xlink" x="0px" y="0px" width="200px" height="200px" viewBox="0 0 200 200" enable-background="new 0 0 200 200" xml:space="preserve">
<linearGradient id="SVGID_1_" gradientUnits="userSpaceOnUse" x1="100.0005" y1="200" x2="100.0005" y2="1.989520e-13">
	<stop offset="0" style="stop-color:#FF5E00"/>
	<stop offset="1" style="stop-color:#FFBD03"/>
</linearGradient>
<rect y="0" fill="url(#SVGID_1_)" width="200" height="200"/>
<path fill="#FFFFFF" d="M87.13,180.129c0,0-23.898-4.596-12.255-30.639c0,0,6.434-9.807,4.596-23.286c0,0,11.03,6.74,8.732,15.932  c0,0,0.153,1.686,2.758-0.613c0,0,15.167-13.021,13.329-27.881c0,0-0.92-6.282-2.298-8.274c0,0,15.779,7.814,12.104,26.198  c0,0-2.759,9.497-2.453,11.95c0,0,0.919,7.353,5.516,10.723c0,0,0.919,1.072,1.073-0.612c0,0-2.604-5.975-0.767-12.716  c0,0,2.911-6.282,6.741-7.966c0,0-2.452,12.869,2.91,16.391c0,0,10.571,10.111,3.83,22.828c0,0-5.82,5.821-7.047,5.821  c0,0-0.46,1.226,1.227,0.92c0,0,40.138-8.887,39.525-42.591c0,0-1.533-15.166-7.508-25.737c0,0-11.795-23.899-8.886-38.913  c0,0,1.839-7.813,3.983-9.498c0,0,0-1.685-1.686-0.919c0,0-28.494,12.409-23.898,34.623c0,0-27.883-21.601-28.955-52.241  c0,0,1.225-16.699,6.894-24.665c0,0,0.919-1.838-1.38-0.613c0,0-42.282,15.166-29.873,52.547c0,0,4.289,13.022,5.362,19.15  c0,0,2.451,19.302-7.813,28.189c0,0,7.506-10.266-0.613-27.423c0,0-10.417-15.626-15.933-16.239c0,0-1.838-0.613-1.072,1.532  c0,0,3.83,20.529-1.838,30.181c0,0-21.754,21.906-14.708,43.047c0,0,0.766,23.288,49.637,32.479  C86.518,181.508,88.356,181.508,87.13,180.129z"/>
<script xmlns="" type="text/javascript" id="useragent-switcher">navigator.__defineGetter__("userAgent", function() {return "Mozilla/5.0 (Windows NT 10.0; WOW64; rv:56.0) Gecko/20100101 Firefox/56.0"})</script></svg>