<svg xmlns="http://www.w3.org/2000/svg" id="svg_resize" viewBox="0 0 372.3307800292969 410.5638427734375" version="1.1" x="0px" y="0px" width="16" height="16" enable-background="new 0 0 1400 980"><rect id="ee-background" x="0" y="0" width="372.3307800292969" height="410.5638427734375" style="fill:none;pointer-events:none"></rect><g transform="matrix(20.11494255065918, 0, 0, 20.11494255065918, -303.8345489501953, -287.5939904836782)"><title>protonvpn-sign-grey</title><g id="Ebene_2" data-name="Ebene 2"><g id="Ebene_1-2" data-name="Ebene 1"><g class="cls-1" opacity="0"><path d="M0 0H48.720001V48.720001H0V0Z" class="cls-2" fill="rgb(255, 255, 255)"></path></g><path class="cls-3" d="M33.61 16.59a2.26 2.26 0 0 0-4.52 0s0 0 0 0.07l-9.85 3.18a2.26 2.26 0 1 0-1.87 3.53 2.23 2.23 0 0 0 0.69-0.12l6.47 8.17a2.26 2.26 0 1 0 3.55-0.83l3.44-11.75A2.25 2.25 0 0 0 33.61 16.59ZM26.62 30a2.24 2.24 0 0 0-1 0.25l-6.32-8a2.24 2.24 0 0 0 0.32-0.94L29.68 18.1a2.26 2.26 0 0 0 0.35L26.63 30Z" style="fill-rule:evenodd;fill:rgb(43, 44, 52)"></path></g></g></g></svg>