<?xml version="1.0" encoding="UTF-8" standalone="no"?>
<!-- Created with Inkscape (http://www.inkscape.org/) -->
<svg xmlns:dc="http://purl.org/dc/elements/1.1/" xmlns:cc="http://creativecommons.org/ns#" xmlns:rdf="http://www.w3.org/1999/02/22-rdf-syntax-ns#" xmlns:svg="http://www.w3.org/2000/svg" xmlns="http://www.w3.org/2000/svg" xmlns:xlink="http://www.w3.org/1999/xlink" version="1.1" width="100" height="73" viewBox="0 0 28.222224 20.602223" id="svg2" xml:space="preserve" style="fill-rule:evenodd"><metadata id="metadata34"><rdf:RDF><cc:Work rdf:about=""><dc:format>image/svg+xml</dc:format><dc:type rdf:resource="http://purl.org/dc/dcmitype/StillImage"/><dc:title/></cc:Work></rdf:RDF></metadata>
 <defs id="defs4"><linearGradient id="linearGradient3832"><stop id="stop3834" style="stop-color:#7e7e7e;stop-opacity:1" offset="0"/><stop id="stop3836" style="stop-color:#1f1f1f;stop-opacity:1" offset="1"/></linearGradient><linearGradient id="linearGradient3822"><stop id="stop3824" style="stop-color:#fef900;stop-opacity:1" offset="0"/><stop id="stop3826" style="stop-color:#fed800;stop-opacity:1" offset="1"/></linearGradient><linearGradient id="linearGradient3814"><stop id="stop3816" style="stop-color:#919191;stop-opacity:1" offset="0"/><stop id="stop3818" style="stop-color:#171713;stop-opacity:1" offset="1"/></linearGradient><style type="text/css" id="style6"/><linearGradient x1="70.379448" y1="142.99069" x2="72.2425" y2="144.73137" id="linearGradient3820" xlink:href="#linearGradient3814" gradientUnits="userSpaceOnUse" gradientTransform="translate(23.347098,0)"/><linearGradient x1="96.205276" y1="146.09409" x2="110.6448" y2="155.7019" id="linearGradient3828" xlink:href="#linearGradient3822" gradientUnits="userSpaceOnUse"/><linearGradient x1="106.02914" y1="147.18237" x2="106.02914" y2="151.06375" id="linearGradient3838" xlink:href="#linearGradient3832" gradientUnits="userSpaceOnUse"/><style type="text/css" id="style3039"/><linearGradient x1="106.02914" y1="147.18237" x2="106.02914" y2="151.06375" id="linearGradient3100" xlink:href="#linearGradient3832" gradientUnits="userSpaceOnUse" gradientTransform="matrix(0.96838527,0,0,0.96838527,-87.74222,-134.00483)"/><linearGradient x1="96.205276" y1="146.09409" x2="110.6448" y2="155.7019" id="linearGradient3106" xlink:href="#linearGradient3822" gradientUnits="userSpaceOnUse" gradientTransform="matrix(0.96838527,0,0,0.96838527,-87.74222,-134.00483)"/><linearGradient x1="70.379448" y1="142.99069" x2="72.2425" y2="144.73137" id="linearGradient3109" xlink:href="#linearGradient3814" gradientUnits="userSpaceOnUse" gradientTransform="matrix(0.96838528,0,0,0.96838528,-65.133236,-134.00483)"/></defs>
 <path d="M 27.477218,0.46998095 C 7.6256182,-0.97300975 -5.7549465,2.4737636 2.6623552,20.282176 10.907478,20.024489 19.1523,19.774258 27.39781,20.480695 28.183945,14.212918 28.491505,7.6917136 27.477219,0.46998095 z" id="path10" style="fill:url(#linearGradient3109);fill-opacity:1;stroke:#000000;stroke-width:0.19745275;stroke-miterlimit:4;stroke-opacity:1;stroke-dasharray:none"/><path d="M 27.477227,0.46998095 C 11.740773,0.63266924 0.98356251,5.3179116 2.6623552,20.282176 10.907478,20.024489 19.15231,19.774258 27.39782,20.480695 28.183955,14.212918 28.491514,7.6917136 27.477229,0.46998095 z" id="path12" style="fill:url(#linearGradient3106);fill-opacity:1"/><path d="m 7.5592422,8.0748811 3.8725108,0 c 1.104028,0 1.999486,0.8954597 1.999486,1.9994859 l 0,0.947165 c 0,1.150406 -1.225059,2.405094 -2.379241,2.405094 l -1.4936577,0 0,3.270925 -0.3797576,0.40561 -1.9990976,0 0,-8.6226701 0.3797571,-0.4056098 z m 3.4931418,2.4599959 c 0,-0.517253 -0.419552,-0.936805 -0.936804,-0.936805 l -0.5572397,0 0,2.305364 0.9369947,0 c 0.389249,0 0.557049,-0.14195 0.557049,-0.531196 l 0,-0.837363 z" id="path3117" style="fill:#000000;fill-rule:evenodd"/><path d="m 14.368527,8.0748811 3.872515,0 c 1.104022,0 1.999483,0.8954597 1.999483,1.9994859 l 0,4.623699 c 0,1.150406 -1.225058,2.405095 -2.379242,2.405095 l -3.87251,0 0,-8.6226701 0.379754,-0.4056098 z m 1.999097,1.5231909 0,5.981898 0.937002,0 c 0.38866,0 0.557044,-0.142337 0.557044,-0.531195 l 0,-4.513898 c 0,-0.517253 -0.419553,-0.936805 -0.936804,-0.936805 l -0.557242,0 z" id="path3113" style="fill:#000000;fill-rule:evenodd"/><path d="m 21.152544,8.0748811 4.859472,0 0,1.1175811 -0.379755,0.4056098 -2.480623,0 0,2.305364 2.151604,0 0,1.117581 -0.379759,0.405609 -1.771845,0 0,3.270925 -0.379755,0.40561 -1.999099,0 0,-8.6226701 0.37976,-0.4056098 z" id="path3047" style="fill:#000000;fill-rule:evenodd"/><path d="m 11.052445,10.534409 c 0,-0.517311 -0.419601,-0.9369127 -0.936913,-0.9369127 l -0.9371059,0 0,2.7112867 0.9371059,0 c 0.517312,0 0.936913,-0.419602 0.936913,-0.936914 l 0,-0.83746 z m -3.8733471,-2.0546227 3.8729601,0 c 1.104153,0 1.999715,0.8955616 1.999715,1.9997157 l 0,0.947275 c 0,1.104153 -0.895562,1.999716 -1.999715,1.999716 l -1.8736319,0 0,3.676958 -1.9993282,0 0,-8.6236647 z" id="path20" style="fill:#000000"/><path d="m 15.989273,9.59798 0,6.388246 0.937107,0 c 0.517311,0 0.936912,-0.419602 0.936912,-0.936913 l 0,-4.514419 c 0,-0.517313 -0.419601,-0.936914 -0.936912,-0.936914 l -0.937107,0 z m -1.999328,-1.11771 3.87296,0 c 1.104153,0 1.999716,0.8955627 1.999716,1.999717 l 0,4.624233 c 0,1.104153 -0.895563,1.999716 -1.999716,1.999716 l -3.87296,0 0,-8.623666 z" id="path22" style="fill:#000000"/><polygon points="117.078,147.136 117.078,148.291 114.124,148.291 114.124,151.09 116.346,151.09 116.346,152.244 114.124,152.244 114.124,156.042 112.059,156.042 112.059,147.136 " transform="matrix(0.96838527,0,0,0.96838527,-87.74222,-134.00483)" id="polygon24" style="fill:#000000"/><path d="m 25.634391,9.59798 -2.860611,0 0,2.710512 -1.999716,0 0,-3.8289966 4.860327,0 z m -11.644834,-1.1184846 3.87296,0 c 1.104153,0 1.999716,0.8955627 1.999716,1.9997166 l 0,1.82928 -1.999328,0 0,-1.774372 c 0,-0.517313 -0.419601,-0.9369146 -0.936913,-0.9369146 l -0.937106,0 0,2.7112866 -1.999329,0 0,-3.8289966 z m -6.8100719,0 3.8729599,0 c 1.104153,0 1.999715,0.8955627 1.999715,1.9997166 l 0,0.947275 c 0,0.316661 -0.0736,0.615795 -0.204716,0.882005 l -2.731525,0 c 0.517312,0 0.936913,-0.419602 0.936913,-0.936912 l 0,-0.83746 c 0,-0.517313 -0.419601,-0.9369146 -0.936913,-0.9369146 l -0.9371057,0 0,2.7112866 -1.9993282,0 0,-3.8289966 z" id="polygon30" style="fill:url(#linearGradient3100);fill-opacity:1"/>
</svg>